<?xml version="1.0" encoding="utf-8" ?>
<svg baseProfile="tiny" height="100%" version="1.2" width="100%" xmlns="http://www.w3.org/2000/svg" xmlns:ev="http://www.w3.org/2001/xml-events" xmlns:xlink="http://www.w3.org/1999/xlink"><defs /><line stroke="rgb(80,80,80)" x1="5.0" x2="36.0" y1="5.0" y2="383.0" /><line stroke="rgb(80,80,80)" x1="36.0" x2="127.0" y1="383.0" y2="600.0" /><line stroke="rgb(80,80,80)" x1="127.0" x2="291.0" y1="600.0" y2="734.0" /><line stroke="rgb(80,80,80)" x1="291.0" x2="529.0" y1="734.0" y2="681.0" /><line stroke="rgb(80,80,80)" x1="529.0" x2="731.0" y1="681.0" y2="403.0" /><line stroke="rgb(80,80,80)" x1="731.0" x2="698.0" y1="403.0" y2="249.0" /><line stroke="rgb(80,80,80)" x1="698.0" x2="467.0" y1="249.0" y2="76.0" /><line stroke="rgb(80,80,80)" x1="467.0" x2="249.0" y1="76.0" y2="85.0" /><line stroke="rgb(80,80,80)" x1="249.0" x2="58.0" y1="85.0" y2="236.0" /><line stroke="rgb(80,80,80)" x1="58.0" x2="512.0" y1="236.0" y2="812.0" /><line stroke="rgb(80,80,80)" x1="512.0" x2="876.0" y1="812.0" y2="641.0" /><line stroke="rgb(80,80,80)" x1="876.0" x2="867.0" y1="641.0" y2="485.0" /><line stroke="rgb(80,80,80)" x1="867.0" x2="445.0" y1="485.0" y2="347.0" /><line stroke="rgb(80,80,80)" x1="445.0" x2="351.0" y1="347.0" y2="494.0" /><line stroke="rgb(80,80,80)" x1="351.0" x2="727.0" y1="494.0" y2="827.0" /><line stroke="rgb(80,80,80)" x1="727.0" x2="958.0" y1="827.0" y2="794.0" /><circle cx="5.0" cy="5.0" r="2" /><circle cx="36.0" cy="383.0" r="2" /><circle cx="127.0" cy="600.0" r="2" /><circle cx="291.0" cy="734.0" r="2" /><circle cx="529.0" cy="681.0" r="2" /><circle cx="731.0" cy="403.0" r="2" /><circle cx="698.0" cy="249.0" r="2" /><circle cx="467.0" cy="76.0" r="2" /><circle cx="249.0" cy="85.0" r="2" /><circle cx="58.0" cy="236.0" r="2" /><circle cx="512.0" cy="812.0" r="2" /><circle cx="876.0" cy="641.0" r="2" /><circle cx="867.0" cy="485.0" r="2" /><circle cx="445.0" cy="347.0" r="2" /><circle cx="351.0" cy="494.0" r="2" /><circle cx="727.0" cy="827.0" r="2" /><circle cx="958.0" cy="794.0" r="2" /></svg>