<?xml version="1.0" encoding="utf-8" ?>
<svg baseProfile="tiny" height="100%" version="1.2" width="100%" xmlns="http://www.w3.org/2000/svg" xmlns:ev="http://www.w3.org/2001/xml-events" xmlns:xlink="http://www.w3.org/1999/xlink"><defs /><line stroke="rgb(80,80,80)" x1="26.2207" x2="5.0" y1="263.727" y2="217.4678" /><line stroke="rgb(80,80,80)" x1="5.0" x2="5.9552" y1="217.4678" y2="200.4688" /><line stroke="rgb(80,80,80)" x1="5.9552" x2="5.521" y1="200.4688" y2="168.713" /><line stroke="rgb(80,80,80)" x1="5.521" x2="24.2194" y1="168.713" y2="127.1791" /><line stroke="rgb(80,80,80)" x1="24.2194" x2="53.6524" y1="127.1791" y2="131.6811" /><line stroke="rgb(80,80,80)" x1="53.6524" x2="108.0517" y1="131.6811" y2="139.8947" /><line stroke="rgb(80,80,80)" x1="108.0517" x2="146.6088" y1="139.8947" y2="78.271" /><line stroke="rgb(80,80,80)" x1="146.6088" x2="162.5051" y1="78.271" y2="55.868" /><line stroke="rgb(80,80,80)" x1="162.5051" x2="287.5069" y1="55.868" y2="99.7218" /><line stroke="rgb(80,80,80)" x1="287.5069" x2="340.1591" y1="99.7218" y2="92.954" /><line stroke="rgb(80,80,80)" x1="340.1591" x2="390.2021" y1="92.954" y2="116.5654" /><line stroke="rgb(80,80,80)" x1="390.2021" x2="398.4994" y1="116.5654" y2="139.6807" /><line stroke="rgb(80,80,80)" x1="398.4994" x2="384.8159" y1="139.6807" y2="160.2749" /><line stroke="rgb(80,80,80)" x1="384.8159" x2="346.868" y1="160.2749" y2="193.5258" /><line stroke="rgb(80,80,80)" x1="346.868" x2="296.3773" y1="193.5258" y2="165.8112" /><line stroke="rgb(80,80,80)" x1="296.3773" x2="228.6461" y1="165.8112" y2="147.3521" /><line stroke="rgb(80,80,80)" x1="228.6461" x2="224.398" y1="147.3521" y2="154.4045" /><line stroke="rgb(80,80,80)" x1="224.398" x2="274.2829" y1="154.4045" y2="218.7415" /><line stroke="rgb(80,80,80)" x1="274.2829" x2="278.7489" y1="218.7415" y2="260.2029" /><line stroke="rgb(80,80,80)" x1="278.7489" x2="265.5814" y1="260.2029" y2="316.0549" /><line stroke="rgb(80,80,80)" x1="265.5814" x2="137.3807" y1="316.0549" y2="345.2153" /><line stroke="rgb(80,80,80)" x1="137.3807" x2="126.3429" y1="345.2153" y2="328.4952" /><line stroke="rgb(80,80,80)" x1="126.3429" x2="91.2807" y1="328.4952" y2="275.0642" /><line stroke="rgb(80,80,80)" x1="91.2807" x2="116.2647" y1="275.0642" y2="5.0" /><circle cx="26.2207" cy="263.727" r="2" /><circle cx="5.0" cy="217.4678" r="2" /><circle cx="5.9552" cy="200.4688" r="2" /><circle cx="5.521" cy="168.713" r="2" /><circle cx="24.2194" cy="127.1791" r="2" /><circle cx="53.6524" cy="131.6811" r="2" /><circle cx="108.0517" cy="139.8947" r="2" /><circle cx="146.6088" cy="78.271" r="2" /><circle cx="162.5051" cy="55.868" r="2" /><circle cx="287.5069" cy="99.7218" r="2" /><circle cx="340.1591" cy="92.954" r="2" /><circle cx="390.2021" cy="116.5654" r="2" /><circle cx="398.4994" cy="139.6807" r="2" /><circle cx="384.8159" cy="160.2749" r="2" /><circle cx="346.868" cy="193.5258" r="2" /><circle cx="296.3773" cy="165.8112" r="2" /><circle cx="228.6461" cy="147.3521" r="2" /><circle cx="224.398" cy="154.4045" r="2" /><circle cx="274.2829" cy="218.7415" r="2" /><circle cx="278.7489" cy="260.2029" r="2" /><circle cx="265.5814" cy="316.0549" r="2" /><circle cx="137.3807" cy="345.2153" r="2" /><circle cx="126.3429" cy="328.4952" r="2" /><circle cx="91.2807" cy="275.0642" r="2" /><circle cx="116.2647" cy="5.0" r="2" /></svg>