<?xml version="1.0" encoding="utf-8" ?>
<svg baseProfile="tiny" height="100%" version="1.2" width="100%" xmlns="http://www.w3.org/2000/svg" xmlns:ev="http://www.w3.org/2001/xml-events" xmlns:xlink="http://www.w3.org/1999/xlink"><defs /><line stroke="rgb(80,80,80)" x1="10.0893" x2="5.0" y1="25.0314" y2="32.9411" /><line stroke="rgb(80,80,80)" x1="5.0" x2="108.845" y1="32.9411" y2="100.3374" /><line stroke="rgb(80,80,80)" x1="108.845" x2="153.9457" y1="100.3374" y2="124.8858" /><line stroke="rgb(80,80,80)" x1="153.9457" x2="191.6366" y1="124.8858" y2="120.5887" /><line stroke="rgb(80,80,80)" x1="191.6366" x2="208.6733" y1="120.5887" y2="173.1804" /><line stroke="rgb(80,80,80)" x1="208.6733" x2="226.2682" y1="173.1804" y2="174.0994" /><line stroke="rgb(80,80,80)" x1="226.2682" x2="247.4897" y1="174.0994" y2="140.7264" /><line stroke="rgb(80,80,80)" x1="247.4897" x2="267.088" y1="140.7264" y2="129.1733" /><line stroke="rgb(80,80,80)" x1="267.088" x2="294.2428" y1="129.1733" y2="158.314" /><line stroke="rgb(80,80,80)" x1="294.2428" x2="280.3261" y1="158.314" y2="175.476" /><line stroke="rgb(80,80,80)" x1="280.3261" x2="356.8531" y1="175.476" y2="248.3192" /><line stroke="rgb(80,80,80)" x1="356.8531" x2="355.55" y1="248.3192" y2="265.3409" /><line stroke="rgb(80,80,80)" x1="355.55" x2="363.3925" y1="265.3409" y2="280.9489" /><line stroke="rgb(80,80,80)" x1="363.3925" x2="372.5232" y1="280.9489" y2="308.6055" /><line stroke="rgb(80,80,80)" x1="372.5232" x2="383.8773" y1="308.6055" y2="307.3276" /><line stroke="rgb(80,80,80)" x1="383.8773" x2="395.6152" y1="307.3276" y2="339.7521" /><line stroke="rgb(80,80,80)" x1="395.6152" x2="431.6279" y1="339.7521" y2="334.0626" /><line stroke="rgb(80,80,80)" x1="431.6279" x2="453.7041" y1="334.0626" y2="338.7089" /><line stroke="rgb(80,80,80)" x1="453.7041" x2="474.5114" y1="338.7089" y2="297.3106" /><line stroke="rgb(80,80,80)" x1="474.5114" x2="471.6704" y1="297.3106" y2="257.5655" /><line stroke="rgb(80,80,80)" x1="471.6704" x2="420.226" y1="257.5655" y2="255.0753" /><line stroke="rgb(80,80,80)" x1="420.226" x2="401.7428" y1="255.0753" y2="258.4891" /><line stroke="rgb(80,80,80)" x1="401.7428" x2="398.8404" y1="258.4891" y2="274.9606" /><line stroke="rgb(80,80,80)" x1="398.8404" x2="420.4946" y1="274.9606" y2="283.6489" /><line stroke="rgb(80,80,80)" x1="420.4946" x2="419.7399" y1="283.6489" y2="330.1801" /><line stroke="rgb(80,80,80)" x1="419.7399" x2="401.0568" y1="330.1801" y2="372.5832" /><line stroke="rgb(80,80,80)" x1="401.0568" x2="243.7419" y1="372.5832" y2="397.2082" /><line stroke="rgb(80,80,80)" x1="243.7419" x2="209.3796" y1="397.2082" y2="360.6186" /><line stroke="rgb(80,80,80)" x1="209.3796" x2="198.2644" y1="360.6186" y2="339.1899" /><line stroke="rgb(80,80,80)" x1="198.2644" x2="201.4418" y1="339.1899" y2="322.5018" /><line stroke="rgb(80,80,80)" x1="201.4418" x2="196.1335" y1="322.5018" y2="294.0133" /><line stroke="rgb(80,80,80)" x1="196.1335" x2="159.0919" y1="294.0133" y2="256.3179" /><line stroke="rgb(80,80,80)" x1="159.0919" x2="123.7152" y1="256.3179" y2="276.2239" /><line stroke="rgb(80,80,80)" x1="123.7152" x2="103.8465" y1="276.2239" y2="299.745" /><line stroke="rgb(80,80,80)" x1="103.8465" x2="130.839" y1="299.745" y2="336.5766" /><line stroke="rgb(80,80,80)" x1="130.839" x2="319.9009" y1="336.5766" y2="320.5459" /><line stroke="rgb(80,80,80)" x1="319.9009" x2="319.0518" y1="320.5459" y2="286.4124" /><line stroke="rgb(80,80,80)" x1="319.0518" x2="381.8394" y1="286.4124" y2="263.028" /><line stroke="rgb(80,80,80)" x1="381.8394" x2="380.5739" y1="263.028" y2="208.6575" /><line stroke="rgb(80,80,80)" x1="380.5739" x2="375.4806" y1="208.6575" y2="191.0915" /><line stroke="rgb(80,80,80)" x1="375.4806" x2="411.6668" y1="191.0915" y2="160.3236" /><line stroke="rgb(80,80,80)" x1="411.6668" x2="436.9705" y1="160.3236" y2="167.0324" /><line stroke="rgb(80,80,80)" x1="436.9705" x2="454.1754" y1="167.0324" y2="178.1285" /><line stroke="rgb(80,80,80)" x1="454.1754" x2="544.2485" y1="178.1285" y2="243.1753" /><line stroke="rgb(80,80,80)" x1="544.2485" x2="530.7783" y1="243.1753" y2="281.3423" /><line stroke="rgb(80,80,80)" x1="530.7783" x2="527.7629" y1="281.3423" y2="281.0062" /><line stroke="rgb(80,80,80)" x1="527.7629" x2="450.2657" y1="281.0062" y2="319.8086" /><line stroke="rgb(80,80,80)" x1="450.2657" x2="347.9253" y1="319.8086" y2="349.0601" /><line stroke="rgb(80,80,80)" x1="347.9253" x2="172.2636" y1="349.0601" y2="167.736" /><line stroke="rgb(80,80,80)" x1="172.2636" x2="144.6075" y1="167.736" y2="62.8592" /><line stroke="rgb(80,80,80)" x1="144.6075" x2="107.6171" y1="62.8592" y2="35.6922" /><line stroke="rgb(80,80,80)" x1="107.6171" x2="111.3481" y1="35.6922" y2="21.35" /><line stroke="rgb(80,80,80)" x1="111.3481" x2="320.0101" y1="21.35" y2="32.9597" /><line stroke="rgb(80,80,80)" x1="320.0101" x2="345.5077" y1="32.9597" y2="5.2912" /><line stroke="rgb(80,80,80)" x1="345.5077" x2="450.9362" y1="5.2912" y2="5.0" /><line stroke="rgb(80,80,80)" x1="450.9362" x2="456.4225" y1="5.0" y2="54.1805" /><line stroke="rgb(80,80,80)" x1="456.4225" x2="441.9476" y1="54.1805" y2="62.5145" /><line stroke="rgb(80,80,80)" x1="441.9476" x2="433.5261" y1="62.5145" y2="96.2284" /><line stroke="rgb(80,80,80)" x1="433.5261" x2="449.3596" y1="96.2284" y2="110.1512" /><line stroke="rgb(80,80,80)" x1="449.3596" x2="454.2388" y1="110.1512" y2="141.9434" /><line stroke="rgb(80,80,80)" x1="454.2388" x2="357.5501" y1="141.9434" y2="231.2172" /><line stroke="rgb(80,80,80)" x1="357.5501" x2="339.1611" y1="231.2172" y2="217.5973" /><line stroke="rgb(80,80,80)" x1="339.1611" x2="312.8391" y1="217.5973" y2="184.3659" /><line stroke="rgb(80,80,80)" x1="312.8391" x2="318.5988" y1="184.3659" y2="99.1449" /><line stroke="rgb(80,80,80)" x1="318.5988" x2="363.7769" y1="99.1449" y2="78.5968" /><line stroke="rgb(80,80,80)" x1="363.7769" x2="391.0893" y1="78.5968" y2="104.8671" /><line stroke="rgb(80,80,80)" x1="391.0893" x2="486.5027" y1="104.8671" y2="75.7255" /><line stroke="rgb(80,80,80)" x1="486.5027" x2="509.0199" y1="75.7255" y2="70.9777" /><line stroke="rgb(80,80,80)" x1="509.0199" x2="519.8621" y1="70.9777" y2="58.9462" /><line stroke="rgb(80,80,80)" x1="519.8621" x2="537.4169" y1="58.9462" y2="65.2377" /><line stroke="rgb(80,80,80)" x1="537.4169" x2="588.1323" y1="65.2377" y2="254.4326" /><line stroke="rgb(80,80,80)" x1="588.1323" x2="576.6551" y1="254.4326" y2="302.6439" /><line stroke="rgb(80,80,80)" x1="576.6551" x2="553.9684" y1="302.6439" y2="313.9762" /><line stroke="rgb(80,80,80)" x1="553.9684" x2="545.4551" y1="313.9762" y2="300.0871" /><line stroke="rgb(80,80,80)" x1="545.4551" x2="515.6594" y1="300.0871" y2="46.3571" /><line stroke="rgb(80,80,80)" x1="515.6594" x2="543.8543" y1="46.3571" y2="30.9324" /><line stroke="rgb(80,80,80)" x1="543.8543" x2="541.6438" y1="30.9324" y2="16.327" /><line stroke="rgb(80,80,80)" x1="541.6438" x2="501.1804" y1="16.327" y2="9.3116" /><line stroke="rgb(80,80,80)" x1="501.1804" x2="279.5235" y1="9.3116" y2="66.5703" /><circle cx="10.0893" cy="25.0314" r="2" /><circle cx="5.0" cy="32.9411" r="2" /><circle cx="108.845" cy="100.3374" r="2" /><circle cx="153.9457" cy="124.8858" r="2" /><circle cx="191.6366" cy="120.5887" r="2" /><circle cx="208.6733" cy="173.1804" r="2" /><circle cx="226.2682" cy="174.0994" r="2" /><circle cx="247.4897" cy="140.7264" r="2" /><circle cx="267.088" cy="129.1733" r="2" /><circle cx="294.2428" cy="158.314" r="2" /><circle cx="280.3261" cy="175.476" r="2" /><circle cx="356.8531" cy="248.3192" r="2" /><circle cx="355.55" cy="265.3409" r="2" /><circle cx="363.3925" cy="280.9489" r="2" /><circle cx="372.5232" cy="308.6055" r="2" /><circle cx="383.8773" cy="307.3276" r="2" /><circle cx="395.6152" cy="339.7521" r="2" /><circle cx="431.6279" cy="334.0626" r="2" /><circle cx="453.7041" cy="338.7089" r="2" /><circle cx="474.5114" cy="297.3106" r="2" /><circle cx="471.6704" cy="257.5655" r="2" /><circle cx="420.226" cy="255.0753" r="2" /><circle cx="401.7428" cy="258.4891" r="2" /><circle cx="398.8404" cy="274.9606" r="2" /><circle cx="420.4946" cy="283.6489" r="2" /><circle cx="419.7399" cy="330.1801" r="2" /><circle cx="401.0568" cy="372.5832" r="2" /><circle cx="243.7419" cy="397.2082" r="2" /><circle cx="209.3796" cy="360.6186" r="2" /><circle cx="198.2644" cy="339.1899" r="2" /><circle cx="201.4418" cy="322.5018" r="2" /><circle cx="196.1335" cy="294.0133" r="2" /><circle cx="159.0919" cy="256.3179" r="2" /><circle cx="123.7152" cy="276.2239" r="2" /><circle cx="103.8465" cy="299.745" r="2" /><circle cx="130.839" cy="336.5766" r="2" /><circle cx="319.9009" cy="320.5459" r="2" /><circle cx="319.0518" cy="286.4124" r="2" /><circle cx="381.8394" cy="263.028" r="2" /><circle cx="380.5739" cy="208.6575" r="2" /><circle cx="375.4806" cy="191.0915" r="2" /><circle cx="411.6668" cy="160.3236" r="2" /><circle cx="436.9705" cy="167.0324" r="2" /><circle cx="454.1754" cy="178.1285" r="2" /><circle cx="544.2485" cy="243.1753" r="2" /><circle cx="530.7783" cy="281.3423" r="2" /><circle cx="527.7629" cy="281.0062" r="2" /><circle cx="450.2657" cy="319.8086" r="2" /><circle cx="347.9253" cy="349.0601" r="2" /><circle cx="172.2636" cy="167.736" r="2" /><circle cx="144.6075" cy="62.8592" r="2" /><circle cx="107.6171" cy="35.6922" r="2" /><circle cx="111.3481" cy="21.35" r="2" /><circle cx="320.0101" cy="32.9597" r="2" /><circle cx="345.5077" cy="5.2912" r="2" /><circle cx="450.9362" cy="5.0" r="2" /><circle cx="456.4225" cy="54.1805" r="2" /><circle cx="441.9476" cy="62.5145" r="2" /><circle cx="433.5261" cy="96.2284" r="2" /><circle cx="449.3596" cy="110.1512" r="2" /><circle cx="454.2388" cy="141.9434" r="2" /><circle cx="357.5501" cy="231.2172" r="2" /><circle cx="339.1611" cy="217.5973" r="2" /><circle cx="312.8391" cy="184.3659" r="2" /><circle cx="318.5988" cy="99.1449" r="2" /><circle cx="363.7769" cy="78.5968" r="2" /><circle cx="391.0893" cy="104.8671" r="2" /><circle cx="486.5027" cy="75.7255" r="2" /><circle cx="509.0199" cy="70.9777" r="2" /><circle cx="519.8621" cy="58.9462" r="2" /><circle cx="537.4169" cy="65.2377" r="2" /><circle cx="588.1323" cy="254.4326" r="2" /><circle cx="576.6551" cy="302.6439" r="2" /><circle cx="553.9684" cy="313.9762" r="2" /><circle cx="545.4551" cy="300.0871" r="2" /><circle cx="515.6594" cy="46.3571" r="2" /><circle cx="543.8543" cy="30.9324" r="2" /><circle cx="541.6438" cy="16.327" r="2" /><circle cx="501.1804" cy="9.3116" r="2" /><circle cx="279.5235" cy="66.5703" r="2" /></svg>