<?xml version="1.0" encoding="utf-8" ?>
<svg baseProfile="tiny" height="100%" version="1.2" width="100%" xmlns="http://www.w3.org/2000/svg" xmlns:ev="http://www.w3.org/2001/xml-events" xmlns:xlink="http://www.w3.org/1999/xlink"><defs /><line stroke="rgb(80,80,80)" x1="51.8089" x2="69.566" y1="376.9579" y2="366.6562" /><line stroke="rgb(80,80,80)" x1="69.566" x2="90.5732" y1="366.6562" y2="352.8978" /><line stroke="rgb(80,80,80)" x1="90.5732" x2="91.2871" y1="352.8978" y2="345.364" /><line stroke="rgb(80,80,80)" x1="91.2871" x2="76.9443" y1="345.364" y2="318.3636" /><line stroke="rgb(80,80,80)" x1="76.9443" x2="102.9961" y1="318.3636" y2="301.9086" /><line stroke="rgb(80,80,80)" x1="102.9961" x2="106.4091" y1="301.9086" y2="287.7674" /><line stroke="rgb(80,80,80)" x1="106.4091" x2="84.3931" y1="287.7674" y2="279.0333" /><line stroke="rgb(80,80,80)" x1="84.3931" x2="43.8888" y1="279.0333" y2="277.7552" /><line stroke="rgb(80,80,80)" x1="43.8888" x2="7.9293" y1="277.7552" y2="304.8755" /><line stroke="rgb(80,80,80)" x1="7.9293" x2="5.0" y1="304.8755" y2="311.2228" /><line stroke="rgb(80,80,80)" x1="5.0" x2="23.3192" y1="311.2228" y2="340.8994" /><line stroke="rgb(80,80,80)" x1="23.3192" x2="99.3772" y1="340.8994" y2="372.1459" /><line stroke="rgb(80,80,80)" x1="99.3772" x2="138.9282" y1="372.1459" y2="385.4402" /><line stroke="rgb(80,80,80)" x1="138.9282" x2="171.6717" y1="385.4402" y2="368.2124" /><line stroke="rgb(80,80,80)" x1="171.6717" x2="157.0733" y1="368.2124" y2="330.5679" /><line stroke="rgb(80,80,80)" x1="157.0733" x2="134.6349" y1="330.5679" y2="324.4233" /><line stroke="rgb(80,80,80)" x1="134.6349" x2="144.6951" y1="324.4233" y2="257.2311" /><line stroke="rgb(80,80,80)" x1="144.6951" x2="120.7033" y1="257.2311" y2="223.086" /><line stroke="rgb(80,80,80)" x1="120.7033" x2="107.9656" y1="223.086" y2="203.3602" /><line stroke="rgb(80,80,80)" x1="107.9656" x2="65.2707" y1="203.3602" y2="200.2818" /><line stroke="rgb(80,80,80)" x1="65.2707" x2="47.0988" y1="200.2818" y2="86.5764" /><line stroke="rgb(80,80,80)" x1="47.0988" x2="102.9231" y1="86.5764" y2="58.5444" /><line stroke="rgb(80,80,80)" x1="102.9231" x2="136.4066" y1="58.5444" y2="59.4711" /><line stroke="rgb(80,80,80)" x1="136.4066" x2="158.3274" y1="59.4711" y2="84.3168" /><line stroke="rgb(80,80,80)" x1="158.3274" x2="139.9279" y1="84.3168" y2="103.7786" /><line stroke="rgb(80,80,80)" x1="139.9279" x2="119.6802" y1="103.7786" y2="109.3247" /><line stroke="rgb(80,80,80)" x1="119.6802" x2="89.2297" y1="109.3247" y2="95.9229" /><line stroke="rgb(80,80,80)" x1="89.2297" x2="110.8494" y1="95.9229" y2="5.0" /><line stroke="rgb(80,80,80)" x1="110.8494" x2="351.8855" y1="5.0" y2="26.9092" /><line stroke="rgb(80,80,80)" x1="351.8855" x2="384.3563" y1="26.9092" y2="51.4534" /><line stroke="rgb(80,80,80)" x1="384.3563" x2="398.6577" y1="51.4534" y2="90.1889" /><line stroke="rgb(80,80,80)" x1="398.6577" x2="411.0481" y1="90.1889" y2="117.4194" /><line stroke="rgb(80,80,80)" x1="411.0481" x2="418.9623" y1="117.4194" y2="116.8896" /><line stroke="rgb(80,80,80)" x1="418.9623" x2="464.4475" y1="116.8896" y2="144.4897" /><line stroke="rgb(80,80,80)" x1="464.4475" x2="450.6106" y1="144.4897" y2="178.3685" /><line stroke="rgb(80,80,80)" x1="450.6106" x2="433.4918" y1="178.3685" y2="191.5998" /><line stroke="rgb(80,80,80)" x1="433.4918" x2="427.8395" y1="191.5998" y2="184.5695" /><line stroke="rgb(80,80,80)" x1="427.8395" x2="380.8771" y1="184.5695" y2="154.7884" /><line stroke="rgb(80,80,80)" x1="380.8771" x2="347.6092" y1="154.7884" y2="152.533" /><line stroke="rgb(80,80,80)" x1="347.6092" x2="339.0697" y1="152.533" y2="166.7358" /><line stroke="rgb(80,80,80)" x1="339.0697" x2="291.8574" y1="166.7358" y2="175.6953" /><line stroke="rgb(80,80,80)" x1="291.8574" x2="282.4774" y1="175.6953" y2="180.1063" /><line stroke="rgb(80,80,80)" x1="282.4774" x2="245.6552" y1="180.1063" y2="183.8671" /><line stroke="rgb(80,80,80)" x1="245.6552" x2="243.7039" y1="183.8671" y2="206.7143" /><line stroke="rgb(80,80,80)" x1="243.7039" x2="249.3536" y1="206.7143" y2="235.3024" /><line stroke="rgb(80,80,80)" x1="249.3536" x2="264.1463" y1="235.3024" y2="245.9497" /><line stroke="rgb(80,80,80)" x1="264.1463" x2="287.6234" y1="245.9497" y2="230.7878" /><line stroke="rgb(80,80,80)" x1="287.6234" x2="295.2104" y1="230.7878" y2="224.7268" /><line stroke="rgb(80,80,80)" x1="295.2104" x2="347.4931" y1="224.7268" y2="260.3521" /><line stroke="rgb(80,80,80)" x1="347.4931" x2="349.6137" y1="260.3521" y2="262.0403" /><line stroke="rgb(80,80,80)" x1="349.6137" x2="348.4481" y1="262.0403" y2="269.2414" /><line stroke="rgb(80,80,80)" x1="348.4481" x2="346.6102" y1="269.2414" y2="269.1901" /><line stroke="rgb(80,80,80)" x1="346.6102" x2="332.9554" y1="269.1901" y2="275.7753" /><line stroke="rgb(80,80,80)" x1="332.9554" x2="308.6315" y1="275.7753" y2="301.6439" /><line stroke="rgb(80,80,80)" x1="308.6315" x2="300.702" y1="301.6439" y2="333.5304" /><line stroke="rgb(80,80,80)" x1="300.702" x2="279.028" y1="333.5304" y2="372.3209" /><line stroke="rgb(80,80,80)" x1="279.028" x2="207.4314" y1="372.3209" y2="345.8394" /><line stroke="rgb(80,80,80)" x1="207.4314" x2="165.4894" y1="345.8394" y2="304.5879" /><line stroke="rgb(80,80,80)" x1="165.4894" x2="80.6292" y1="304.5879" y2="225.3934" /><line stroke="rgb(80,80,80)" x1="80.6292" x2="74.7758" y1="225.3934" y2="154.3063" /><line stroke="rgb(80,80,80)" x1="74.7758" x2="244.7917" y1="154.3063" y2="130.6389" /><line stroke="rgb(80,80,80)" x1="244.7917" x2="274.7017" y1="130.6389" y2="72.3688" /><line stroke="rgb(80,80,80)" x1="274.7017" x2="327.0174" y1="72.3688" y2="90.7804" /><line stroke="rgb(80,80,80)" x1="327.0174" x2="360.9692" y1="90.7804" y2="115.4996" /><line stroke="rgb(80,80,80)" x1="360.9692" x2="421.0826" y1="115.4996" y2="227.3246" /><line stroke="rgb(80,80,80)" x1="421.0826" x2="450.8005" y1="227.3246" y2="260.2418" /><line stroke="rgb(80,80,80)" x1="450.8005" x2="454.9814" y1="260.2418" y2="315.0887" /><line stroke="rgb(80,80,80)" x1="454.9814" x2="440.1666" y1="315.0887" y2="321.1812" /><line stroke="rgb(80,80,80)" x1="440.1666" x2="418.8582" y1="321.1812" y2="310.3502" /><line stroke="rgb(80,80,80)" x1="418.8582" x2="392.1022" y1="310.3502" y2="358.9181" /><line stroke="rgb(80,80,80)" x1="392.1022" x2="346.8248" y1="358.9181" y2="351.6768" /><line stroke="rgb(80,80,80)" x1="346.8248" x2="345.4948" y1="351.6768" y2="323.3061" /><line stroke="rgb(80,80,80)" x1="345.4948" x2="412.4333" y1="323.3061" y2="313.5126" /><line stroke="rgb(80,80,80)" x1="412.4333" x2="462.0487" y1="313.5126" y2="351.8833" /><line stroke="rgb(80,80,80)" x1="462.0487" x2="462.5725" y1="351.8833" y2="358.7928" /><line stroke="rgb(80,80,80)" x1="462.5725" x2="509.2772" y1="358.7928" y2="361.9179" /><line stroke="rgb(80,80,80)" x1="509.2772" x2="563.3594" y1="361.9179" y2="340.147" /><line stroke="rgb(80,80,80)" x1="563.3594" x2="588.9702" y1="340.147" y2="223.4345" /><line stroke="rgb(80,80,80)" x1="588.9702" x2="531.6749" y1="223.4345" y2="175.6788" /><line stroke="rgb(80,80,80)" x1="531.6749" x2="516.6577" y1="175.6788" y2="162.8245" /><line stroke="rgb(80,80,80)" x1="516.6577" x2="497.7762" y1="162.8245" y2="172.6464" /><line stroke="rgb(80,80,80)" x1="497.7762" x2="481.4453" y1="172.6464" y2="193.1577" /><line stroke="rgb(80,80,80)" x1="481.4453" x2="470.2567" y1="193.1577" y2="234.6549" /><line stroke="rgb(80,80,80)" x1="470.2567" x2="366.9458" y1="234.6549" y2="278.2094" /><line stroke="rgb(80,80,80)" x1="366.9458" x2="388.0055" y1="278.2094" y2="380.9011" /><line stroke="rgb(80,80,80)" x1="388.0055" x2="422.9132" y1="380.9011" y2="393.318" /><line stroke="rgb(80,80,80)" x1="422.9132" x2="508.7493" y1="393.318" y2="353.9373" /><line stroke="rgb(80,80,80)" x1="508.7493" x2="500.651" y1="353.9373" y2="334.2414" /><line stroke="rgb(80,80,80)" x1="500.651" x2="548.5343" y1="334.2414" y2="151.0315" /><line stroke="rgb(80,80,80)" x1="548.5343" x2="568.3348" y1="151.0315" y2="148.1743" /><line stroke="rgb(80,80,80)" x1="568.3348" x2="567.8518" y1="148.1743" y2="68.2075" /><line stroke="rgb(80,80,80)" x1="567.8518" x2="509.6576" y1="68.2075" y2="8.3649" /><line stroke="rgb(80,80,80)" x1="509.6576" x2="273.7422" y1="8.3649" y2="225.3788" /><line stroke="rgb(80,80,80)" x1="273.7422" x2="326.1373" y1="225.3788" y2="385.354" /><line stroke="rgb(80,80,80)" x1="326.1373" x2="513.8665" y1="385.354" y2="383.8639" /><line stroke="rgb(80,80,80)" x1="513.8665" x2="570.1637" y1="383.8639" y2="103.8512" /><line stroke="rgb(80,80,80)" x1="570.1637" x2="527.8853" y1="103.8512" y2="53.7841" /><line stroke="rgb(80,80,80)" x1="527.8853" x2="235.1438" y1="53.7841" y2="290.1242" /><line stroke="rgb(80,80,80)" x1="235.1438" x2="177.9121" y1="290.1242" y2="388.2383" /><circle cx="51.8089" cy="376.9579" r="2" /><circle cx="69.566" cy="366.6562" r="2" /><circle cx="90.5732" cy="352.8978" r="2" /><circle cx="91.2871" cy="345.364" r="2" /><circle cx="76.9443" cy="318.3636" r="2" /><circle cx="102.9961" cy="301.9086" r="2" /><circle cx="106.4091" cy="287.7674" r="2" /><circle cx="84.3931" cy="279.0333" r="2" /><circle cx="43.8888" cy="277.7552" r="2" /><circle cx="7.9293" cy="304.8755" r="2" /><circle cx="5.0" cy="311.2228" r="2" /><circle cx="23.3192" cy="340.8994" r="2" /><circle cx="99.3772" cy="372.1459" r="2" /><circle cx="138.9282" cy="385.4402" r="2" /><circle cx="171.6717" cy="368.2124" r="2" /><circle cx="157.0733" cy="330.5679" r="2" /><circle cx="134.6349" cy="324.4233" r="2" /><circle cx="144.6951" cy="257.2311" r="2" /><circle cx="120.7033" cy="223.086" r="2" /><circle cx="107.9656" cy="203.3602" r="2" /><circle cx="65.2707" cy="200.2818" r="2" /><circle cx="47.0988" cy="86.5764" r="2" /><circle cx="102.9231" cy="58.5444" r="2" /><circle cx="136.4066" cy="59.4711" r="2" /><circle cx="158.3274" cy="84.3168" r="2" /><circle cx="139.9279" cy="103.7786" r="2" /><circle cx="119.6802" cy="109.3247" r="2" /><circle cx="89.2297" cy="95.9229" r="2" /><circle cx="110.8494" cy="5.0" r="2" /><circle cx="351.8855" cy="26.9092" r="2" /><circle cx="384.3563" cy="51.4534" r="2" /><circle cx="398.6577" cy="90.1889" r="2" /><circle cx="411.0481" cy="117.4194" r="2" /><circle cx="418.9623" cy="116.8896" r="2" /><circle cx="464.4475" cy="144.4897" r="2" /><circle cx="450.6106" cy="178.3685" r="2" /><circle cx="433.4918" cy="191.5998" r="2" /><circle cx="427.8395" cy="184.5695" r="2" /><circle cx="380.8771" cy="154.7884" r="2" /><circle cx="347.6092" cy="152.533" r="2" /><circle cx="339.0697" cy="166.7358" r="2" /><circle cx="291.8574" cy="175.6953" r="2" /><circle cx="282.4774" cy="180.1063" r="2" /><circle cx="245.6552" cy="183.8671" r="2" /><circle cx="243.7039" cy="206.7143" r="2" /><circle cx="249.3536" cy="235.3024" r="2" /><circle cx="264.1463" cy="245.9497" r="2" /><circle cx="287.6234" cy="230.7878" r="2" /><circle cx="295.2104" cy="224.7268" r="2" /><circle cx="347.4931" cy="260.3521" r="2" /><circle cx="349.6137" cy="262.0403" r="2" /><circle cx="348.4481" cy="269.2414" r="2" /><circle cx="346.6102" cy="269.1901" r="2" /><circle cx="332.9554" cy="275.7753" r="2" /><circle cx="308.6315" cy="301.6439" r="2" /><circle cx="300.702" cy="333.5304" r="2" /><circle cx="279.028" cy="372.3209" r="2" /><circle cx="207.4314" cy="345.8394" r="2" /><circle cx="165.4894" cy="304.5879" r="2" /><circle cx="80.6292" cy="225.3934" r="2" /><circle cx="74.7758" cy="154.3063" r="2" /><circle cx="244.7917" cy="130.6389" r="2" /><circle cx="274.7017" cy="72.3688" r="2" /><circle cx="327.0174" cy="90.7804" r="2" /><circle cx="360.9692" cy="115.4996" r="2" /><circle cx="421.0826" cy="227.3246" r="2" /><circle cx="450.8005" cy="260.2418" r="2" /><circle cx="454.9814" cy="315.0887" r="2" /><circle cx="440.1666" cy="321.1812" r="2" /><circle cx="418.8582" cy="310.3502" r="2" /><circle cx="392.1022" cy="358.9181" r="2" /><circle cx="346.8248" cy="351.6768" r="2" /><circle cx="345.4948" cy="323.3061" r="2" /><circle cx="412.4333" cy="313.5126" r="2" /><circle cx="462.0487" cy="351.8833" r="2" /><circle cx="462.5725" cy="358.7928" r="2" /><circle cx="509.2772" cy="361.9179" r="2" /><circle cx="563.3594" cy="340.147" r="2" /><circle cx="588.9702" cy="223.4345" r="2" /><circle cx="531.6749" cy="175.6788" r="2" /><circle cx="516.6577" cy="162.8245" r="2" /><circle cx="497.7762" cy="172.6464" r="2" /><circle cx="481.4453" cy="193.1577" r="2" /><circle cx="470.2567" cy="234.6549" r="2" /><circle cx="366.9458" cy="278.2094" r="2" /><circle cx="388.0055" cy="380.9011" r="2" /><circle cx="422.9132" cy="393.318" r="2" /><circle cx="508.7493" cy="353.9373" r="2" /><circle cx="500.651" cy="334.2414" r="2" /><circle cx="548.5343" cy="151.0315" r="2" /><circle cx="568.3348" cy="148.1743" r="2" /><circle cx="567.8518" cy="68.2075" r="2" /><circle cx="509.6576" cy="8.3649" r="2" /><circle cx="273.7422" cy="225.3788" r="2" /><circle cx="326.1373" cy="385.354" r="2" /><circle cx="513.8665" cy="383.8639" r="2" /><circle cx="570.1637" cy="103.8512" r="2" /><circle cx="527.8853" cy="53.7841" r="2" /><circle cx="235.1438" cy="290.1242" r="2" /><circle cx="177.9121" cy="388.2383" r="2" /></svg>