<?xml version="1.0" encoding="utf-8" ?>
<svg baseProfile="tiny" height="100%" version="1.2" width="100%" xmlns="http://www.w3.org/2000/svg" xmlns:ev="http://www.w3.org/2001/xml-events" xmlns:xlink="http://www.w3.org/1999/xlink"><defs /><line stroke="rgb(80,80,80)" x1="9.3451" x2="30.5463" y1="14.2376" y2="5.0" /><line stroke="rgb(80,80,80)" x1="30.5463" x2="39.3674" y1="5.0" y2="6.7656" /><line stroke="rgb(80,80,80)" x1="39.3674" x2="43.6829" y1="6.7656" y2="41.6779" /><line stroke="rgb(80,80,80)" x1="43.6829" x2="12.6143" y1="41.6779" y2="90.0415" /><line stroke="rgb(80,80,80)" x1="12.6143" x2="6.4764" y1="90.0415" y2="141.8006" /><line stroke="rgb(80,80,80)" x1="6.4764" x2="5.0" y1="141.8006" y2="146.0003" /><line stroke="rgb(80,80,80)" x1="5.0" x2="11.0159" y1="146.0003" y2="213.6133" /><line stroke="rgb(80,80,80)" x1="11.0159" x2="55.9246" y1="213.6133" y2="249.7658" /><line stroke="rgb(80,80,80)" x1="55.9246" x2="154.237" y1="249.7658" y2="281.4572" /><line stroke="rgb(80,80,80)" x1="154.237" x2="195.4023" y1="281.4572" y2="279.4241" /><line stroke="rgb(80,80,80)" x1="195.4023" x2="220.8405" y1="279.4241" y2="275.6939" /><line stroke="rgb(80,80,80)" x1="220.8405" x2="216.3846" y1="275.6939" y2="227.4984" /><line stroke="rgb(80,80,80)" x1="216.3846" x2="282.0871" y1="227.4984" y2="215.4994" /><line stroke="rgb(80,80,80)" x1="282.0871" x2="316.1222" y1="215.4994" y2="237.1611" /><line stroke="rgb(80,80,80)" x1="316.1222" x2="336.1477" y1="237.1611" y2="233.6958" /><line stroke="rgb(80,80,80)" x1="336.1477" x2="353.3907" y1="233.6958" y2="252.6694" /><line stroke="rgb(80,80,80)" x1="353.3907" x2="354.5657" y1="252.6694" y2="257.0958" /><line stroke="rgb(80,80,80)" x1="354.5657" x2="397.0575" y1="257.0958" y2="271.7104" /><line stroke="rgb(80,80,80)" x1="397.0575" x2="407.7267" y1="271.7104" y2="333.9775" /><line stroke="rgb(80,80,80)" x1="407.7267" x2="462.6196" y1="333.9775" y2="337.4765" /><line stroke="rgb(80,80,80)" x1="462.6196" x2="500.569" y1="337.4765" y2="296.2226" /><line stroke="rgb(80,80,80)" x1="500.569" x2="530.6636" y1="296.2226" y2="281.4467" /><line stroke="rgb(80,80,80)" x1="530.6636" x2="544.5589" y1="281.4467" y2="239.9705" /><line stroke="rgb(80,80,80)" x1="544.5589" x2="575.014" y1="239.9705" y2="100.0891" /><line stroke="rgb(80,80,80)" x1="575.014" x2="554.2607" y1="100.0891" y2="57.6624" /><line stroke="rgb(80,80,80)" x1="554.2607" x2="433.7896" y1="57.6624" y2="83.2731" /><line stroke="rgb(80,80,80)" x1="433.7896" x2="381.6086" y1="83.2731" y2="37.7371" /><line stroke="rgb(80,80,80)" x1="381.6086" x2="321.3909" y1="37.7371" y2="34.3823" /><line stroke="rgb(80,80,80)" x1="321.3909" x2="317.4751" y1="34.3823" y2="9.1422" /><line stroke="rgb(80,80,80)" x1="317.4751" x2="144.0006" y1="9.1422" y2="35.7354" /><line stroke="rgb(80,80,80)" x1="144.0006" x2="88.8056" y1="35.7354" y2="23.2197" /><line stroke="rgb(80,80,80)" x1="88.8056" x2="56.3128" y1="23.2197" y2="39.1809" /><line stroke="rgb(80,80,80)" x1="56.3128" x2="113.3381" y1="39.1809" y2="360.2214" /><line stroke="rgb(80,80,80)" x1="113.3381" x2="186.2425" y1="360.2214" y2="360.1676" /><line stroke="rgb(80,80,80)" x1="186.2425" x2="222.5779" y1="360.1676" y2="339.1345" /><line stroke="rgb(80,80,80)" x1="222.5779" x2="204.5665" y1="339.1345" y2="307.7919" /><line stroke="rgb(80,80,80)" x1="204.5665" x2="209.6397" y1="307.7919" y2="234.3239" /><line stroke="rgb(80,80,80)" x1="209.6397" x2="259.4755" y1="234.3239" y2="146.7316" /><line stroke="rgb(80,80,80)" x1="259.4755" x2="232.3399" y1="146.7316" y2="124.9667" /><line stroke="rgb(80,80,80)" x1="232.3399" x2="233.7578" y1="124.9667" y2="86.218" /><line stroke="rgb(80,80,80)" x1="233.7578" x2="249.761" y1="86.218" y2="57.8373" /><line stroke="rgb(80,80,80)" x1="249.761" x2="453.5173" y1="57.8373" y2="117.3815" /><line stroke="rgb(80,80,80)" x1="453.5173" x2="432.5371" y1="117.3815" y2="204.7767" /><line stroke="rgb(80,80,80)" x1="432.5371" x2="383.664" y1="204.7767" y2="224.1716" /><line stroke="rgb(80,80,80)" x1="383.664" x2="338.0646" y1="224.1716" y2="343.1621" /><line stroke="rgb(80,80,80)" x1="338.0646" x2="342.4417" y1="343.1621" y2="348.3733" /><line stroke="rgb(80,80,80)" x1="342.4417" x2="329.6788" y1="348.3733" y2="390.5641" /><line stroke="rgb(80,80,80)" x1="329.6788" x2="260.0326" y1="390.5641" y2="388.7626" /><line stroke="rgb(80,80,80)" x1="260.0326" x2="246.3541" y1="388.7626" y2="372.0435" /><line stroke="rgb(80,80,80)" x1="246.3541" x2="208.8505" y1="372.0435" y2="321.4211" /><line stroke="rgb(80,80,80)" x1="208.8505" x2="67.9841" y1="321.4211" y2="373.5139" /><line stroke="rgb(80,80,80)" x1="67.9841" x2="32.1555" y1="373.5139" y2="368.6247" /><line stroke="rgb(80,80,80)" x1="32.1555" x2="76.6617" y1="368.6247" y2="8.6903" /><line stroke="rgb(80,80,80)" x1="76.6617" x2="174.1923" y1="8.6903" y2="10.575" /><line stroke="rgb(80,80,80)" x1="174.1923" x2="241.5767" y1="10.575" y2="375.1663" /><line stroke="rgb(80,80,80)" x1="241.5767" x2="318.7304" y1="375.1663" y2="371.2397" /><line stroke="rgb(80,80,80)" x1="318.7304" x2="327.6239" y1="371.2397" y2="349.8409" /><line stroke="rgb(80,80,80)" x1="327.6239" x2="535.2526" y1="349.8409" y2="321.148" /><line stroke="rgb(80,80,80)" x1="535.2526" x2="558.87" y1="321.148" y2="329.583" /><circle cx="9.3451" cy="14.2376" r="2" /><circle cx="30.5463" cy="5.0" r="2" /><circle cx="39.3674" cy="6.7656" r="2" /><circle cx="43.6829" cy="41.6779" r="2" /><circle cx="12.6143" cy="90.0415" r="2" /><circle cx="6.4764" cy="141.8006" r="2" /><circle cx="5.0" cy="146.0003" r="2" /><circle cx="11.0159" cy="213.6133" r="2" /><circle cx="55.9246" cy="249.7658" r="2" /><circle cx="154.237" cy="281.4572" r="2" /><circle cx="195.4023" cy="279.4241" r="2" /><circle cx="220.8405" cy="275.6939" r="2" /><circle cx="216.3846" cy="227.4984" r="2" /><circle cx="282.0871" cy="215.4994" r="2" /><circle cx="316.1222" cy="237.1611" r="2" /><circle cx="336.1477" cy="233.6958" r="2" /><circle cx="353.3907" cy="252.6694" r="2" /><circle cx="354.5657" cy="257.0958" r="2" /><circle cx="397.0575" cy="271.7104" r="2" /><circle cx="407.7267" cy="333.9775" r="2" /><circle cx="462.6196" cy="337.4765" r="2" /><circle cx="500.569" cy="296.2226" r="2" /><circle cx="530.6636" cy="281.4467" r="2" /><circle cx="544.5589" cy="239.9705" r="2" /><circle cx="575.014" cy="100.0891" r="2" /><circle cx="554.2607" cy="57.6624" r="2" /><circle cx="433.7896" cy="83.2731" r="2" /><circle cx="381.6086" cy="37.7371" r="2" /><circle cx="321.3909" cy="34.3823" r="2" /><circle cx="317.4751" cy="9.1422" r="2" /><circle cx="144.0006" cy="35.7354" r="2" /><circle cx="88.8056" cy="23.2197" r="2" /><circle cx="56.3128" cy="39.1809" r="2" /><circle cx="113.3381" cy="360.2214" r="2" /><circle cx="186.2425" cy="360.1676" r="2" /><circle cx="222.5779" cy="339.1345" r="2" /><circle cx="204.5665" cy="307.7919" r="2" /><circle cx="209.6397" cy="234.3239" r="2" /><circle cx="259.4755" cy="146.7316" r="2" /><circle cx="232.3399" cy="124.9667" r="2" /><circle cx="233.7578" cy="86.218" r="2" /><circle cx="249.761" cy="57.8373" r="2" /><circle cx="453.5173" cy="117.3815" r="2" /><circle cx="432.5371" cy="204.7767" r="2" /><circle cx="383.664" cy="224.1716" r="2" /><circle cx="338.0646" cy="343.1621" r="2" /><circle cx="342.4417" cy="348.3733" r="2" /><circle cx="329.6788" cy="390.5641" r="2" /><circle cx="260.0326" cy="388.7626" r="2" /><circle cx="246.3541" cy="372.0435" r="2" /><circle cx="208.8505" cy="321.4211" r="2" /><circle cx="67.9841" cy="373.5139" r="2" /><circle cx="32.1555" cy="368.6247" r="2" /><circle cx="76.6617" cy="8.6903" r="2" /><circle cx="174.1923" cy="10.575" r="2" /><circle cx="241.5767" cy="375.1663" r="2" /><circle cx="318.7304" cy="371.2397" r="2" /><circle cx="327.6239" cy="349.8409" r="2" /><circle cx="535.2526" cy="321.148" r="2" /><circle cx="558.87" cy="329.583" r="2" /></svg>