<?xml version="1.0" encoding="utf-8" ?>
<svg baseProfile="tiny" height="100%" version="1.2" width="100%" xmlns="http://www.w3.org/2000/svg" xmlns:ev="http://www.w3.org/2001/xml-events" xmlns:xlink="http://www.w3.org/1999/xlink"><defs /><line stroke="rgb(80,80,80)" x1="244.0133" x2="231.5846" y1="238.5304" y2="249.7214" /><line stroke="rgb(80,80,80)" x1="231.5846" x2="217.1007" y1="249.7214" y2="258.0836" /><line stroke="rgb(80,80,80)" x1="217.1007" x2="201.1947" y1="258.0836" y2="263.2518" /><line stroke="rgb(80,80,80)" x1="201.1947" x2="184.5618" y1="263.2518" y2="265.0" /><line stroke="rgb(80,80,80)" x1="184.5618" x2="167.9288" y1="265.0" y2="263.2518" /><line stroke="rgb(80,80,80)" x1="167.9288" x2="152.0228" y1="263.2518" y2="258.0836" /><line stroke="rgb(80,80,80)" x1="152.0228" x2="137.5389" y1="258.0836" y2="249.7214" /><line stroke="rgb(80,80,80)" x1="137.5389" x2="131.5846" y1="249.7214" y2="249.7214" /><line stroke="rgb(80,80,80)" x1="131.5846" x2="125.1102" y1="249.7214" y2="238.5304" /><line stroke="rgb(80,80,80)" x1="125.1102" x2="115.2797" y1="238.5304" y2="225.0" /><line stroke="rgb(80,80,80)" x1="115.2797" x2="108.4772" y1="225.0" y2="209.7214" /><line stroke="rgb(80,80,80)" x1="108.4772" x2="105.0" y1="209.7214" y2="193.3623" /><line stroke="rgb(80,80,80)" x1="105.0" x2="105.0" y1="193.3623" y2="176.6377" /><line stroke="rgb(80,80,80)" x1="105.0" x2="101.1947" y1="176.6377" y2="163.2518" /><line stroke="rgb(80,80,80)" x1="101.1947" x2="108.4772" y1="163.2518" y2="160.2786" /><line stroke="rgb(80,80,80)" x1="108.4772" x2="117.1007" y1="160.2786" y2="158.0836" /><line stroke="rgb(80,80,80)" x1="117.1007" x2="115.2797" y1="158.0836" y2="145.0" /><line stroke="rgb(80,80,80)" x1="115.2797" x2="125.1102" y1="145.0" y2="138.5304" /><line stroke="rgb(80,80,80)" x1="125.1102" x2="125.1102" y1="138.5304" y2="131.4696" /><line stroke="rgb(80,80,80)" x1="125.1102" x2="115.2797" y1="131.4696" y2="125.0" /><line stroke="rgb(80,80,80)" x1="115.2797" x2="117.1007" y1="125.0" y2="111.9164" /><line stroke="rgb(80,80,80)" x1="117.1007" x2="108.4772" y1="111.9164" y2="109.7214" /><line stroke="rgb(80,80,80)" x1="108.4772" x2="101.1947" y1="109.7214" y2="106.7482" /><line stroke="rgb(80,80,80)" x1="101.1947" x2="105.0" y1="106.7482" y2="93.3623" /><line stroke="rgb(80,80,80)" x1="105.0" x2="105.0" y1="93.3623" y2="76.6377" /><line stroke="rgb(80,80,80)" x1="105.0" x2="108.4772" y1="76.6377" y2="60.2786" /><line stroke="rgb(80,80,80)" x1="108.4772" x2="115.2797" y1="60.2786" y2="45.0" /><line stroke="rgb(80,80,80)" x1="115.2797" x2="125.1102" y1="45.0" y2="31.4696" /><line stroke="rgb(80,80,80)" x1="125.1102" x2="131.5846" y1="31.4696" y2="20.2786" /><line stroke="rgb(80,80,80)" x1="131.5846" x2="137.5389" y1="20.2786" y2="20.2786" /><line stroke="rgb(80,80,80)" x1="137.5389" x2="144.0133" y1="20.2786" y2="31.4696" /><line stroke="rgb(80,80,80)" x1="144.0133" x2="153.8438" y1="31.4696" y2="45.0" /><line stroke="rgb(80,80,80)" x1="153.8438" x2="160.6463" y1="45.0" y2="60.2786" /><line stroke="rgb(80,80,80)" x1="160.6463" x2="164.1235" y1="60.2786" y2="76.6377" /><line stroke="rgb(80,80,80)" x1="164.1235" x2="164.1235" y1="76.6377" y2="93.3623" /><line stroke="rgb(80,80,80)" x1="164.1235" x2="167.9288" y1="93.3623" y2="106.7482" /><line stroke="rgb(80,80,80)" x1="167.9288" x2="160.6463" y1="106.7482" y2="109.7214" /><line stroke="rgb(80,80,80)" x1="160.6463" x2="152.0228" y1="109.7214" y2="111.9164" /><line stroke="rgb(80,80,80)" x1="152.0228" x2="153.8438" y1="111.9164" y2="125.0" /><line stroke="rgb(80,80,80)" x1="153.8438" x2="144.0133" y1="125.0" y2="131.4696" /><line stroke="rgb(80,80,80)" x1="144.0133" x2="144.0133" y1="131.4696" y2="138.5304" /><line stroke="rgb(80,80,80)" x1="144.0133" x2="153.8438" y1="138.5304" y2="145.0" /><line stroke="rgb(80,80,80)" x1="153.8438" x2="152.0228" y1="145.0" y2="158.0836" /><line stroke="rgb(80,80,80)" x1="152.0228" x2="160.6463" y1="158.0836" y2="160.2786" /><line stroke="rgb(80,80,80)" x1="160.6463" x2="167.9288" y1="160.2786" y2="163.2518" /><line stroke="rgb(80,80,80)" x1="167.9288" x2="164.1235" y1="163.2518" y2="176.6377" /><line stroke="rgb(80,80,80)" x1="164.1235" x2="164.1235" y1="176.6377" y2="193.3623" /><line stroke="rgb(80,80,80)" x1="164.1235" x2="160.6463" y1="193.3623" y2="209.7214" /><line stroke="rgb(80,80,80)" x1="160.6463" x2="153.8438" y1="209.7214" y2="225.0" /><line stroke="rgb(80,80,80)" x1="153.8438" x2="144.0133" y1="225.0" y2="238.5304" /><line stroke="rgb(80,80,80)" x1="144.0133" x2="117.1007" y1="238.5304" y2="258.0836" /><line stroke="rgb(80,80,80)" x1="117.1007" x2="101.1947" y1="258.0836" y2="263.2518" /><line stroke="rgb(80,80,80)" x1="101.1947" x2="84.5618" y1="263.2518" y2="265.0" /><line stroke="rgb(80,80,80)" x1="84.5618" x2="67.9288" y1="265.0" y2="263.2518" /><line stroke="rgb(80,80,80)" x1="67.9288" x2="52.0228" y1="263.2518" y2="258.0836" /><line stroke="rgb(80,80,80)" x1="52.0228" x2="37.5389" y1="258.0836" y2="249.7214" /><line stroke="rgb(80,80,80)" x1="37.5389" x2="25.1102" y1="249.7214" y2="238.5304" /><line stroke="rgb(80,80,80)" x1="25.1102" x2="15.2797" y1="238.5304" y2="225.0" /><line stroke="rgb(80,80,80)" x1="15.2797" x2="8.4772" y1="225.0" y2="209.7214" /><line stroke="rgb(80,80,80)" x1="8.4772" x2="5.0" y1="209.7214" y2="193.3623" /><line stroke="rgb(80,80,80)" x1="5.0" x2="5.0" y1="193.3623" y2="176.6377" /><line stroke="rgb(80,80,80)" x1="5.0" x2="8.4772" y1="176.6377" y2="160.2786" /><line stroke="rgb(80,80,80)" x1="8.4772" x2="15.2797" y1="160.2786" y2="145.0" /><line stroke="rgb(80,80,80)" x1="15.2797" x2="25.1102" y1="145.0" y2="138.5304" /><line stroke="rgb(80,80,80)" x1="25.1102" x2="25.1102" y1="138.5304" y2="131.4696" /><line stroke="rgb(80,80,80)" x1="25.1102" x2="15.2797" y1="131.4696" y2="125.0" /><line stroke="rgb(80,80,80)" x1="15.2797" x2="8.4772" y1="125.0" y2="109.7214" /><line stroke="rgb(80,80,80)" x1="8.4772" x2="5.0" y1="109.7214" y2="93.3623" /><line stroke="rgb(80,80,80)" x1="5.0" x2="5.0" y1="93.3623" y2="76.6377" /><line stroke="rgb(80,80,80)" x1="5.0" x2="8.4772" y1="76.6377" y2="60.2786" /><line stroke="rgb(80,80,80)" x1="8.4772" x2="15.2797" y1="60.2786" y2="45.0" /><line stroke="rgb(80,80,80)" x1="15.2797" x2="25.1102" y1="45.0" y2="31.4696" /><line stroke="rgb(80,80,80)" x1="25.1102" x2="37.5389" y1="31.4696" y2="20.2786" /><line stroke="rgb(80,80,80)" x1="37.5389" x2="52.0228" y1="20.2786" y2="11.9164" /><line stroke="rgb(80,80,80)" x1="52.0228" x2="67.9288" y1="11.9164" y2="6.7482" /><line stroke="rgb(80,80,80)" x1="67.9288" x2="84.5618" y1="6.7482" y2="5.0" /><line stroke="rgb(80,80,80)" x1="84.5618" x2="101.1947" y1="5.0" y2="6.7482" /><line stroke="rgb(80,80,80)" x1="101.1947" x2="117.1007" y1="6.7482" y2="11.9164" /><line stroke="rgb(80,80,80)" x1="117.1007" x2="152.0228" y1="11.9164" y2="11.9164" /><line stroke="rgb(80,80,80)" x1="152.0228" x2="167.9288" y1="11.9164" y2="6.7482" /><line stroke="rgb(80,80,80)" x1="167.9288" x2="184.5618" y1="6.7482" y2="5.0" /><line stroke="rgb(80,80,80)" x1="184.5618" x2="201.1947" y1="5.0" y2="6.7482" /><line stroke="rgb(80,80,80)" x1="201.1947" x2="217.1007" y1="6.7482" y2="11.9164" /><line stroke="rgb(80,80,80)" x1="217.1007" x2="231.5846" y1="11.9164" y2="20.2786" /><line stroke="rgb(80,80,80)" x1="231.5846" x2="244.0133" y1="20.2786" y2="31.4696" /><line stroke="rgb(80,80,80)" x1="244.0133" x2="253.8438" y1="31.4696" y2="45.0" /><line stroke="rgb(80,80,80)" x1="253.8438" x2="260.6463" y1="45.0" y2="60.2786" /><line stroke="rgb(80,80,80)" x1="260.6463" x2="264.1235" y1="60.2786" y2="76.6377" /><line stroke="rgb(80,80,80)" x1="264.1235" x2="264.1235" y1="76.6377" y2="93.3623" /><line stroke="rgb(80,80,80)" x1="264.1235" x2="260.6463" y1="93.3623" y2="109.7214" /><line stroke="rgb(80,80,80)" x1="260.6463" x2="253.8438" y1="109.7214" y2="125.0" /><line stroke="rgb(80,80,80)" x1="253.8438" x2="244.0133" y1="125.0" y2="131.4696" /><line stroke="rgb(80,80,80)" x1="244.0133" x2="244.0133" y1="131.4696" y2="138.5304" /><line stroke="rgb(80,80,80)" x1="244.0133" x2="253.8438" y1="138.5304" y2="145.0" /><line stroke="rgb(80,80,80)" x1="253.8438" x2="260.6463" y1="145.0" y2="160.2786" /><line stroke="rgb(80,80,80)" x1="260.6463" x2="264.1235" y1="160.2786" y2="176.6377" /><line stroke="rgb(80,80,80)" x1="264.1235" x2="264.1235" y1="176.6377" y2="193.3623" /><line stroke="rgb(80,80,80)" x1="264.1235" x2="260.6463" y1="193.3623" y2="209.7214" /><line stroke="rgb(80,80,80)" x1="260.6463" x2="253.8438" y1="209.7214" y2="225.0" /><line stroke="rgb(80,80,80)" x1="253.8438" x2="84.5618" y1="225.0" y2="165.0" /><line stroke="rgb(80,80,80)" x1="84.5618" x2="67.9288" y1="165.0" y2="163.2518" /><line stroke="rgb(80,80,80)" x1="67.9288" x2="52.0228" y1="163.2518" y2="158.0836" /><line stroke="rgb(80,80,80)" x1="52.0228" x2="37.5389" y1="158.0836" y2="149.7214" /><line stroke="rgb(80,80,80)" x1="37.5389" x2="37.5389" y1="149.7214" y2="120.2786" /><line stroke="rgb(80,80,80)" x1="37.5389" x2="52.0228" y1="120.2786" y2="111.9164" /><line stroke="rgb(80,80,80)" x1="52.0228" x2="67.9288" y1="111.9164" y2="106.7482" /><line stroke="rgb(80,80,80)" x1="67.9288" x2="84.5618" y1="106.7482" y2="105.0" /><line stroke="rgb(80,80,80)" x1="84.5618" x2="131.5846" y1="105.0" y2="120.2786" /><line stroke="rgb(80,80,80)" x1="131.5846" x2="137.5389" y1="120.2786" y2="120.2786" /><line stroke="rgb(80,80,80)" x1="137.5389" x2="137.5389" y1="120.2786" y2="149.7214" /><line stroke="rgb(80,80,80)" x1="137.5389" x2="184.5618" y1="149.7214" y2="165.0" /><line stroke="rgb(80,80,80)" x1="184.5618" x2="201.1947" y1="165.0" y2="163.2518" /><line stroke="rgb(80,80,80)" x1="201.1947" x2="217.1007" y1="163.2518" y2="158.0836" /><line stroke="rgb(80,80,80)" x1="217.1007" x2="231.5846" y1="158.0836" y2="149.7214" /><line stroke="rgb(80,80,80)" x1="231.5846" x2="231.5846" y1="149.7214" y2="120.2786" /><line stroke="rgb(80,80,80)" x1="231.5846" x2="217.1007" y1="120.2786" y2="111.9164" /><line stroke="rgb(80,80,80)" x1="217.1007" x2="201.1947" y1="111.9164" y2="106.7482" /><line stroke="rgb(80,80,80)" x1="201.1947" x2="184.5618" y1="106.7482" y2="105.0" /><line stroke="rgb(80,80,80)" x1="184.5618" x2="131.5846" y1="105.0" y2="149.7214" /><circle cx="244.0133" cy="238.5304" r="2" /><circle cx="231.5846" cy="249.7214" r="2" /><circle cx="217.1007" cy="258.0836" r="2" /><circle cx="201.1947" cy="263.2518" r="2" /><circle cx="184.5618" cy="265.0" r="2" /><circle cx="167.9288" cy="263.2518" r="2" /><circle cx="152.0228" cy="258.0836" r="2" /><circle cx="137.5389" cy="249.7214" r="2" /><circle cx="131.5846" cy="249.7214" r="2" /><circle cx="125.1102" cy="238.5304" r="2" /><circle cx="115.2797" cy="225.0" r="2" /><circle cx="108.4772" cy="209.7214" r="2" /><circle cx="105.0" cy="193.3623" r="2" /><circle cx="105.0" cy="176.6377" r="2" /><circle cx="101.1947" cy="163.2518" r="2" /><circle cx="108.4772" cy="160.2786" r="2" /><circle cx="117.1007" cy="158.0836" r="2" /><circle cx="115.2797" cy="145.0" r="2" /><circle cx="125.1102" cy="138.5304" r="2" /><circle cx="125.1102" cy="131.4696" r="2" /><circle cx="115.2797" cy="125.0" r="2" /><circle cx="117.1007" cy="111.9164" r="2" /><circle cx="108.4772" cy="109.7214" r="2" /><circle cx="101.1947" cy="106.7482" r="2" /><circle cx="105.0" cy="93.3623" r="2" /><circle cx="105.0" cy="76.6377" r="2" /><circle cx="108.4772" cy="60.2786" r="2" /><circle cx="115.2797" cy="45.0" r="2" /><circle cx="125.1102" cy="31.4696" r="2" /><circle cx="131.5846" cy="20.2786" r="2" /><circle cx="137.5389" cy="20.2786" r="2" /><circle cx="144.0133" cy="31.4696" r="2" /><circle cx="153.8438" cy="45.0" r="2" /><circle cx="160.6463" cy="60.2786" r="2" /><circle cx="164.1235" cy="76.6377" r="2" /><circle cx="164.1235" cy="93.3623" r="2" /><circle cx="167.9288" cy="106.7482" r="2" /><circle cx="160.6463" cy="109.7214" r="2" /><circle cx="152.0228" cy="111.9164" r="2" /><circle cx="153.8438" cy="125.0" r="2" /><circle cx="144.0133" cy="131.4696" r="2" /><circle cx="144.0133" cy="138.5304" r="2" /><circle cx="153.8438" cy="145.0" r="2" /><circle cx="152.0228" cy="158.0836" r="2" /><circle cx="160.6463" cy="160.2786" r="2" /><circle cx="167.9288" cy="163.2518" r="2" /><circle cx="164.1235" cy="176.6377" r="2" /><circle cx="164.1235" cy="193.3623" r="2" /><circle cx="160.6463" cy="209.7214" r="2" /><circle cx="153.8438" cy="225.0" r="2" /><circle cx="144.0133" cy="238.5304" r="2" /><circle cx="117.1007" cy="258.0836" r="2" /><circle cx="101.1947" cy="263.2518" r="2" /><circle cx="84.5618" cy="265.0" r="2" /><circle cx="67.9288" cy="263.2518" r="2" /><circle cx="52.0228" cy="258.0836" r="2" /><circle cx="37.5389" cy="249.7214" r="2" /><circle cx="25.1102" cy="238.5304" r="2" /><circle cx="15.2797" cy="225.0" r="2" /><circle cx="8.4772" cy="209.7214" r="2" /><circle cx="5.0" cy="193.3623" r="2" /><circle cx="5.0" cy="176.6377" r="2" /><circle cx="8.4772" cy="160.2786" r="2" /><circle cx="15.2797" cy="145.0" r="2" /><circle cx="25.1102" cy="138.5304" r="2" /><circle cx="25.1102" cy="131.4696" r="2" /><circle cx="15.2797" cy="125.0" r="2" /><circle cx="8.4772" cy="109.7214" r="2" /><circle cx="5.0" cy="93.3623" r="2" /><circle cx="5.0" cy="76.6377" r="2" /><circle cx="8.4772" cy="60.2786" r="2" /><circle cx="15.2797" cy="45.0" r="2" /><circle cx="25.1102" cy="31.4696" r="2" /><circle cx="37.5389" cy="20.2786" r="2" /><circle cx="52.0228" cy="11.9164" r="2" /><circle cx="67.9288" cy="6.7482" r="2" /><circle cx="84.5618" cy="5.0" r="2" /><circle cx="101.1947" cy="6.7482" r="2" /><circle cx="117.1007" cy="11.9164" r="2" /><circle cx="152.0228" cy="11.9164" r="2" /><circle cx="167.9288" cy="6.7482" r="2" /><circle cx="184.5618" cy="5.0" r="2" /><circle cx="201.1947" cy="6.7482" r="2" /><circle cx="217.1007" cy="11.9164" r="2" /><circle cx="231.5846" cy="20.2786" r="2" /><circle cx="244.0133" cy="31.4696" r="2" /><circle cx="253.8438" cy="45.0" r="2" /><circle cx="260.6463" cy="60.2786" r="2" /><circle cx="264.1235" cy="76.6377" r="2" /><circle cx="264.1235" cy="93.3623" r="2" /><circle cx="260.6463" cy="109.7214" r="2" /><circle cx="253.8438" cy="125.0" r="2" /><circle cx="244.0133" cy="131.4696" r="2" /><circle cx="244.0133" cy="138.5304" r="2" /><circle cx="253.8438" cy="145.0" r="2" /><circle cx="260.6463" cy="160.2786" r="2" /><circle cx="264.1235" cy="176.6377" r="2" /><circle cx="264.1235" cy="193.3623" r="2" /><circle cx="260.6463" cy="209.7214" r="2" /><circle cx="253.8438" cy="225.0" r="2" /><circle cx="84.5618" cy="165.0" r="2" /><circle cx="67.9288" cy="163.2518" r="2" /><circle cx="52.0228" cy="158.0836" r="2" /><circle cx="37.5389" cy="149.7214" r="2" /><circle cx="37.5389" cy="120.2786" r="2" /><circle cx="52.0228" cy="111.9164" r="2" /><circle cx="67.9288" cy="106.7482" r="2" /><circle cx="84.5618" cy="105.0" r="2" /><circle cx="131.5846" cy="120.2786" r="2" /><circle cx="137.5389" cy="120.2786" r="2" /><circle cx="137.5389" cy="149.7214" r="2" /><circle cx="184.5618" cy="165.0" r="2" /><circle cx="201.1947" cy="163.2518" r="2" /><circle cx="217.1007" cy="158.0836" r="2" /><circle cx="231.5846" cy="149.7214" r="2" /><circle cx="231.5846" cy="120.2786" r="2" /><circle cx="217.1007" cy="111.9164" r="2" /><circle cx="201.1947" cy="106.7482" r="2" /><circle cx="184.5618" cy="105.0" r="2" /><circle cx="131.5846" cy="149.7214" r="2" /></svg>