<?xml version="1.0" encoding="utf-8" ?>
<svg baseProfile="tiny" height="100%" version="1.2" width="100%" xmlns="http://www.w3.org/2000/svg" xmlns:ev="http://www.w3.org/2001/xml-events" xmlns:xlink="http://www.w3.org/1999/xlink"><defs /><line stroke="rgb(80,80,80)" x1="410.0" x2="400.0" y1="35.0" y2="35.0" /><line stroke="rgb(80,80,80)" x1="400.0" x2="390.0" y1="35.0" y2="35.0" /><line stroke="rgb(80,80,80)" x1="390.0" x2="380.0" y1="35.0" y2="35.0" /><line stroke="rgb(80,80,80)" x1="380.0" x2="370.0" y1="35.0" y2="35.0" /><line stroke="rgb(80,80,80)" x1="370.0" x2="360.0" y1="35.0" y2="35.0" /><line stroke="rgb(80,80,80)" x1="360.0" x2="350.0" y1="35.0" y2="35.0" /><line stroke="rgb(80,80,80)" x1="350.0" x2="340.0" y1="35.0" y2="35.0" /><line stroke="rgb(80,80,80)" x1="340.0" x2="330.0" y1="35.0" y2="35.0" /><line stroke="rgb(80,80,80)" x1="330.0" x2="320.0" y1="35.0" y2="35.0" /><line stroke="rgb(80,80,80)" x1="320.0" x2="310.0" y1="35.0" y2="35.0" /><line stroke="rgb(80,80,80)" x1="310.0" x2="300.0" y1="35.0" y2="35.0" /><line stroke="rgb(80,80,80)" x1="300.0" x2="290.0" y1="35.0" y2="35.0" /><line stroke="rgb(80,80,80)" x1="290.0" x2="280.0" y1="35.0" y2="35.0" /><line stroke="rgb(80,80,80)" x1="280.0" x2="270.0" y1="35.0" y2="35.0" /><line stroke="rgb(80,80,80)" x1="270.0" x2="260.0" y1="35.0" y2="35.0" /><line stroke="rgb(80,80,80)" x1="260.0" x2="250.0" y1="35.0" y2="35.0" /><line stroke="rgb(80,80,80)" x1="250.0" x2="240.0" y1="35.0" y2="35.0" /><line stroke="rgb(80,80,80)" x1="240.0" x2="230.0" y1="35.0" y2="35.0" /><line stroke="rgb(80,80,80)" x1="230.0" x2="220.0" y1="35.0" y2="35.0" /><line stroke="rgb(80,80,80)" x1="220.0" x2="210.0" y1="35.0" y2="35.0" /><line stroke="rgb(80,80,80)" x1="210.0" x2="200.0" y1="35.0" y2="35.0" /><line stroke="rgb(80,80,80)" x1="200.0" x2="190.0" y1="35.0" y2="35.0" /><line stroke="rgb(80,80,80)" x1="190.0" x2="180.0" y1="35.0" y2="35.0" /><line stroke="rgb(80,80,80)" x1="180.0" x2="170.0" y1="35.0" y2="35.0" /><line stroke="rgb(80,80,80)" x1="170.0" x2="160.0" y1="35.0" y2="35.0" /><line stroke="rgb(80,80,80)" x1="160.0" x2="150.0" y1="35.0" y2="35.0" /><line stroke="rgb(80,80,80)" x1="150.0" x2="140.0" y1="35.0" y2="35.0" /><line stroke="rgb(80,80,80)" x1="140.0" x2="130.0" y1="35.0" y2="35.0" /><line stroke="rgb(80,80,80)" x1="130.0" x2="120.0" y1="35.0" y2="35.0" /><line stroke="rgb(80,80,80)" x1="120.0" x2="110.0" y1="35.0" y2="35.0" /><line stroke="rgb(80,80,80)" x1="110.0" x2="100.0" y1="35.0" y2="35.0" /><line stroke="rgb(80,80,80)" x1="100.0" x2="90.0" y1="35.0" y2="35.0" /><line stroke="rgb(80,80,80)" x1="90.0" x2="80.0" y1="35.0" y2="35.0" /><line stroke="rgb(80,80,80)" x1="80.0" x2="70.0" y1="35.0" y2="35.0" /><line stroke="rgb(80,80,80)" x1="70.0" x2="60.0" y1="35.0" y2="35.0" /><line stroke="rgb(80,80,80)" x1="60.0" x2="50.0" y1="35.0" y2="35.0" /><line stroke="rgb(80,80,80)" x1="50.0" x2="40.0" y1="35.0" y2="35.0" /><line stroke="rgb(80,80,80)" x1="40.0" x2="30.0" y1="35.0" y2="35.0" /><line stroke="rgb(80,80,80)" x1="30.0" x2="20.0" y1="35.0" y2="35.0" /><line stroke="rgb(80,80,80)" x1="20.0" x2="10.0" y1="35.0" y2="35.0" /><line stroke="rgb(80,80,80)" x1="10.0" x2="5.0" y1="35.0" y2="20.0" /><line stroke="rgb(80,80,80)" x1="5.0" x2="10.0" y1="20.0" y2="5.0" /><line stroke="rgb(80,80,80)" x1="10.0" x2="20.0" y1="5.0" y2="5.0" /><line stroke="rgb(80,80,80)" x1="20.0" x2="30.0" y1="5.0" y2="5.0" /><line stroke="rgb(80,80,80)" x1="30.0" x2="40.0" y1="5.0" y2="5.0" /><line stroke="rgb(80,80,80)" x1="40.0" x2="50.0" y1="5.0" y2="5.0" /><line stroke="rgb(80,80,80)" x1="50.0" x2="60.0" y1="5.0" y2="5.0" /><line stroke="rgb(80,80,80)" x1="60.0" x2="70.0" y1="5.0" y2="5.0" /><line stroke="rgb(80,80,80)" x1="70.0" x2="80.0" y1="5.0" y2="5.0" /><line stroke="rgb(80,80,80)" x1="80.0" x2="90.0" y1="5.0" y2="5.0" /><line stroke="rgb(80,80,80)" x1="90.0" x2="100.0" y1="5.0" y2="5.0" /><line stroke="rgb(80,80,80)" x1="100.0" x2="110.0" y1="5.0" y2="5.0" /><line stroke="rgb(80,80,80)" x1="110.0" x2="120.0" y1="5.0" y2="5.0" /><line stroke="rgb(80,80,80)" x1="120.0" x2="130.0" y1="5.0" y2="5.0" /><line stroke="rgb(80,80,80)" x1="130.0" x2="140.0" y1="5.0" y2="5.0" /><line stroke="rgb(80,80,80)" x1="140.0" x2="150.0" y1="5.0" y2="5.0" /><line stroke="rgb(80,80,80)" x1="150.0" x2="160.0" y1="5.0" y2="5.0" /><line stroke="rgb(80,80,80)" x1="160.0" x2="170.0" y1="5.0" y2="5.0" /><line stroke="rgb(80,80,80)" x1="170.0" x2="180.0" y1="5.0" y2="5.0" /><line stroke="rgb(80,80,80)" x1="180.0" x2="190.0" y1="5.0" y2="5.0" /><line stroke="rgb(80,80,80)" x1="190.0" x2="200.0" y1="5.0" y2="5.0" /><line stroke="rgb(80,80,80)" x1="200.0" x2="210.0" y1="5.0" y2="5.0" /><line stroke="rgb(80,80,80)" x1="210.0" x2="220.0" y1="5.0" y2="5.0" /><line stroke="rgb(80,80,80)" x1="220.0" x2="230.0" y1="5.0" y2="5.0" /><line stroke="rgb(80,80,80)" x1="230.0" x2="240.0" y1="5.0" y2="5.0" /><line stroke="rgb(80,80,80)" x1="240.0" x2="250.0" y1="5.0" y2="5.0" /><line stroke="rgb(80,80,80)" x1="250.0" x2="260.0" y1="5.0" y2="5.0" /><line stroke="rgb(80,80,80)" x1="260.0" x2="270.0" y1="5.0" y2="5.0" /><line stroke="rgb(80,80,80)" x1="270.0" x2="280.0" y1="5.0" y2="5.0" /><line stroke="rgb(80,80,80)" x1="280.0" x2="290.0" y1="5.0" y2="5.0" /><line stroke="rgb(80,80,80)" x1="290.0" x2="300.0" y1="5.0" y2="5.0" /><line stroke="rgb(80,80,80)" x1="300.0" x2="310.0" y1="5.0" y2="5.0" /><line stroke="rgb(80,80,80)" x1="310.0" x2="320.0" y1="5.0" y2="5.0" /><line stroke="rgb(80,80,80)" x1="320.0" x2="330.0" y1="5.0" y2="5.0" /><line stroke="rgb(80,80,80)" x1="330.0" x2="340.0" y1="5.0" y2="5.0" /><line stroke="rgb(80,80,80)" x1="340.0" x2="350.0" y1="5.0" y2="5.0" /><line stroke="rgb(80,80,80)" x1="350.0" x2="360.0" y1="5.0" y2="5.0" /><line stroke="rgb(80,80,80)" x1="360.0" x2="370.0" y1="5.0" y2="5.0" /><line stroke="rgb(80,80,80)" x1="370.0" x2="380.0" y1="5.0" y2="5.0" /><line stroke="rgb(80,80,80)" x1="380.0" x2="390.0" y1="5.0" y2="5.0" /><line stroke="rgb(80,80,80)" x1="390.0" x2="400.0" y1="5.0" y2="5.0" /><line stroke="rgb(80,80,80)" x1="400.0" x2="410.0" y1="5.0" y2="5.0" /><line stroke="rgb(80,80,80)" x1="410.0" x2="415.0" y1="5.0" y2="20.0" /><circle cx="410.0" cy="35.0" r="2" /><circle cx="400.0" cy="35.0" r="2" /><circle cx="390.0" cy="35.0" r="2" /><circle cx="380.0" cy="35.0" r="2" /><circle cx="370.0" cy="35.0" r="2" /><circle cx="360.0" cy="35.0" r="2" /><circle cx="350.0" cy="35.0" r="2" /><circle cx="340.0" cy="35.0" r="2" /><circle cx="330.0" cy="35.0" r="2" /><circle cx="320.0" cy="35.0" r="2" /><circle cx="310.0" cy="35.0" r="2" /><circle cx="300.0" cy="35.0" r="2" /><circle cx="290.0" cy="35.0" r="2" /><circle cx="280.0" cy="35.0" r="2" /><circle cx="270.0" cy="35.0" r="2" /><circle cx="260.0" cy="35.0" r="2" /><circle cx="250.0" cy="35.0" r="2" /><circle cx="240.0" cy="35.0" r="2" /><circle cx="230.0" cy="35.0" r="2" /><circle cx="220.0" cy="35.0" r="2" /><circle cx="210.0" cy="35.0" r="2" /><circle cx="200.0" cy="35.0" r="2" /><circle cx="190.0" cy="35.0" r="2" /><circle cx="180.0" cy="35.0" r="2" /><circle cx="170.0" cy="35.0" r="2" /><circle cx="160.0" cy="35.0" r="2" /><circle cx="150.0" cy="35.0" r="2" /><circle cx="140.0" cy="35.0" r="2" /><circle cx="130.0" cy="35.0" r="2" /><circle cx="120.0" cy="35.0" r="2" /><circle cx="110.0" cy="35.0" r="2" /><circle cx="100.0" cy="35.0" r="2" /><circle cx="90.0" cy="35.0" r="2" /><circle cx="80.0" cy="35.0" r="2" /><circle cx="70.0" cy="35.0" r="2" /><circle cx="60.0" cy="35.0" r="2" /><circle cx="50.0" cy="35.0" r="2" /><circle cx="40.0" cy="35.0" r="2" /><circle cx="30.0" cy="35.0" r="2" /><circle cx="20.0" cy="35.0" r="2" /><circle cx="10.0" cy="35.0" r="2" /><circle cx="5.0" cy="20.0" r="2" /><circle cx="10.0" cy="5.0" r="2" /><circle cx="20.0" cy="5.0" r="2" /><circle cx="30.0" cy="5.0" r="2" /><circle cx="40.0" cy="5.0" r="2" /><circle cx="50.0" cy="5.0" r="2" /><circle cx="60.0" cy="5.0" r="2" /><circle cx="70.0" cy="5.0" r="2" /><circle cx="80.0" cy="5.0" r="2" /><circle cx="90.0" cy="5.0" r="2" /><circle cx="100.0" cy="5.0" r="2" /><circle cx="110.0" cy="5.0" r="2" /><circle cx="120.0" cy="5.0" r="2" /><circle cx="130.0" cy="5.0" r="2" /><circle cx="140.0" cy="5.0" r="2" /><circle cx="150.0" cy="5.0" r="2" /><circle cx="160.0" cy="5.0" r="2" /><circle cx="170.0" cy="5.0" r="2" /><circle cx="180.0" cy="5.0" r="2" /><circle cx="190.0" cy="5.0" r="2" /><circle cx="200.0" cy="5.0" r="2" /><circle cx="210.0" cy="5.0" r="2" /><circle cx="220.0" cy="5.0" r="2" /><circle cx="230.0" cy="5.0" r="2" /><circle cx="240.0" cy="5.0" r="2" /><circle cx="250.0" cy="5.0" r="2" /><circle cx="260.0" cy="5.0" r="2" /><circle cx="270.0" cy="5.0" r="2" /><circle cx="280.0" cy="5.0" r="2" /><circle cx="290.0" cy="5.0" r="2" /><circle cx="300.0" cy="5.0" r="2" /><circle cx="310.0" cy="5.0" r="2" /><circle cx="320.0" cy="5.0" r="2" /><circle cx="330.0" cy="5.0" r="2" /><circle cx="340.0" cy="5.0" r="2" /><circle cx="350.0" cy="5.0" r="2" /><circle cx="360.0" cy="5.0" r="2" /><circle cx="370.0" cy="5.0" r="2" /><circle cx="380.0" cy="5.0" r="2" /><circle cx="390.0" cy="5.0" r="2" /><circle cx="400.0" cy="5.0" r="2" /><circle cx="410.0" cy="5.0" r="2" /><circle cx="415.0" cy="20.0" r="2" /></svg>