<?xml version="1.0" encoding="utf-8" ?>
<svg baseProfile="tiny" height="100%" version="1.2" width="100%" xmlns="http://www.w3.org/2000/svg" xmlns:ev="http://www.w3.org/2001/xml-events" xmlns:xlink="http://www.w3.org/1999/xlink"><defs /><line stroke="rgb(80,80,80)" x1="352.5333" x2="377.1095" y1="71.1739" y2="105.0" /><line stroke="rgb(80,80,80)" x1="377.1095" x2="394.1157" y1="105.0" y2="143.1966" /><line stroke="rgb(80,80,80)" x1="394.1157" x2="402.8088" y1="143.1966" y2="184.0943" /><line stroke="rgb(80,80,80)" x1="402.8088" x2="402.8088" y1="184.0943" y2="225.9057" /><line stroke="rgb(80,80,80)" x1="402.8088" x2="394.1157" y1="225.9057" y2="266.8034" /><line stroke="rgb(80,80,80)" x1="394.1157" x2="377.1095" y1="266.8034" y2="305.0" /><line stroke="rgb(80,80,80)" x1="377.1095" x2="352.5333" y1="305.0" y2="338.8261" /><line stroke="rgb(80,80,80)" x1="352.5333" x2="321.4614" y1="338.8261" y2="366.8034" /><line stroke="rgb(80,80,80)" x1="321.4614" x2="285.2517" y1="366.8034" y2="387.7091" /><line stroke="rgb(80,80,80)" x1="285.2517" x2="245.4867" y1="387.7091" y2="400.6295" /><line stroke="rgb(80,80,80)" x1="245.4867" x2="203.9044" y1="400.6295" y2="405.0" /><line stroke="rgb(80,80,80)" x1="203.9044" x2="162.322" y1="405.0" y2="400.6295" /><line stroke="rgb(80,80,80)" x1="162.322" x2="122.5571" y1="400.6295" y2="387.7091" /><line stroke="rgb(80,80,80)" x1="122.5571" x2="86.3473" y1="387.7091" y2="366.8034" /><line stroke="rgb(80,80,80)" x1="86.3473" x2="55.2754" y1="366.8034" y2="338.8261" /><line stroke="rgb(80,80,80)" x1="55.2754" x2="30.6993" y1="338.8261" y2="305.0" /><line stroke="rgb(80,80,80)" x1="30.6993" x2="13.6931" y1="305.0" y2="266.8034" /><line stroke="rgb(80,80,80)" x1="13.6931" x2="5.0" y1="266.8034" y2="225.9057" /><line stroke="rgb(80,80,80)" x1="5.0" x2="5.0" y1="225.9057" y2="184.0943" /><line stroke="rgb(80,80,80)" x1="5.0" x2="13.6931" y1="184.0943" y2="143.1966" /><line stroke="rgb(80,80,80)" x1="13.6931" x2="30.6993" y1="143.1966" y2="105.0" /><line stroke="rgb(80,80,80)" x1="30.6993" x2="55.2754" y1="105.0" y2="71.1739" /><line stroke="rgb(80,80,80)" x1="55.2754" x2="86.3473" y1="71.1739" y2="43.1966" /><line stroke="rgb(80,80,80)" x1="86.3473" x2="122.5571" y1="43.1966" y2="22.2909" /><line stroke="rgb(80,80,80)" x1="122.5571" x2="162.322" y1="22.2909" y2="9.3705" /><line stroke="rgb(80,80,80)" x1="162.322" x2="203.9044" y1="9.3705" y2="5.0" /><line stroke="rgb(80,80,80)" x1="203.9044" x2="245.4867" y1="5.0" y2="9.3705" /><line stroke="rgb(80,80,80)" x1="245.4867" x2="285.2517" y1="9.3705" y2="22.2909" /><line stroke="rgb(80,80,80)" x1="285.2517" x2="321.4614" y1="22.2909" y2="43.1966" /><line stroke="rgb(80,80,80)" x1="321.4614" x2="315.3761" y1="43.1966" y2="104.6304" /><line stroke="rgb(80,80,80)" x1="315.3761" x2="333.8082" y1="104.6304" y2="130.0" /><line stroke="rgb(80,80,80)" x1="333.8082" x2="346.5629" y1="130.0" y2="158.6475" /><line stroke="rgb(80,80,80)" x1="346.5629" x2="353.0827" y1="158.6475" y2="189.3207" /><line stroke="rgb(80,80,80)" x1="353.0827" x2="353.0827" y1="189.3207" y2="220.6793" /><line stroke="rgb(80,80,80)" x1="353.0827" x2="346.5629" y1="220.6793" y2="251.3525" /><line stroke="rgb(80,80,80)" x1="346.5629" x2="333.8082" y1="251.3525" y2="280.0" /><line stroke="rgb(80,80,80)" x1="333.8082" x2="315.3761" y1="280.0" y2="305.3696" /><line stroke="rgb(80,80,80)" x1="315.3761" x2="292.0722" y1="305.3696" y2="326.3525" /><line stroke="rgb(80,80,80)" x1="292.0722" x2="264.9149" y1="326.3525" y2="342.0318" /><line stroke="rgb(80,80,80)" x1="264.9149" x2="235.0911" y1="342.0318" y2="351.7221" /><line stroke="rgb(80,80,80)" x1="235.0911" x2="203.9044" y1="351.7221" y2="355.0" /><line stroke="rgb(80,80,80)" x1="203.9044" x2="172.7176" y1="355.0" y2="351.7221" /><line stroke="rgb(80,80,80)" x1="172.7176" x2="142.8939" y1="351.7221" y2="342.0318" /><line stroke="rgb(80,80,80)" x1="142.8939" x2="115.7366" y1="342.0318" y2="326.3525" /><line stroke="rgb(80,80,80)" x1="115.7366" x2="92.4327" y1="326.3525" y2="305.3696" /><line stroke="rgb(80,80,80)" x1="92.4327" x2="74.0006" y1="305.3696" y2="280.0" /><line stroke="rgb(80,80,80)" x1="74.0006" x2="61.2459" y1="280.0" y2="251.3525" /><line stroke="rgb(80,80,80)" x1="61.2459" x2="54.7261" y1="251.3525" y2="220.6793" /><line stroke="rgb(80,80,80)" x1="54.7261" x2="54.7261" y1="220.6793" y2="189.3207" /><line stroke="rgb(80,80,80)" x1="54.7261" x2="61.2459" y1="189.3207" y2="158.6475" /><line stroke="rgb(80,80,80)" x1="61.2459" x2="74.0006" y1="158.6475" y2="130.0" /><line stroke="rgb(80,80,80)" x1="74.0006" x2="92.4327" y1="130.0" y2="104.6304" /><line stroke="rgb(80,80,80)" x1="92.4327" x2="115.7366" y1="104.6304" y2="83.6475" /><line stroke="rgb(80,80,80)" x1="115.7366" x2="142.8939" y1="83.6475" y2="67.9682" /><line stroke="rgb(80,80,80)" x1="142.8939" x2="172.7176" y1="67.9682" y2="58.2779" /><line stroke="rgb(80,80,80)" x1="172.7176" x2="203.9044" y1="58.2779" y2="55.0" /><line stroke="rgb(80,80,80)" x1="203.9044" x2="235.0911" y1="55.0" y2="58.2779" /><line stroke="rgb(80,80,80)" x1="235.0911" x2="264.9149" y1="58.2779" y2="67.9682" /><line stroke="rgb(80,80,80)" x1="264.9149" x2="292.0722" y1="67.9682" y2="83.6475" /><circle cx="352.5333" cy="71.1739" r="2" /><circle cx="377.1095" cy="105.0" r="2" /><circle cx="394.1157" cy="143.1966" r="2" /><circle cx="402.8088" cy="184.0943" r="2" /><circle cx="402.8088" cy="225.9057" r="2" /><circle cx="394.1157" cy="266.8034" r="2" /><circle cx="377.1095" cy="305.0" r="2" /><circle cx="352.5333" cy="338.8261" r="2" /><circle cx="321.4614" cy="366.8034" r="2" /><circle cx="285.2517" cy="387.7091" r="2" /><circle cx="245.4867" cy="400.6295" r="2" /><circle cx="203.9044" cy="405.0" r="2" /><circle cx="162.322" cy="400.6295" r="2" /><circle cx="122.5571" cy="387.7091" r="2" /><circle cx="86.3473" cy="366.8034" r="2" /><circle cx="55.2754" cy="338.8261" r="2" /><circle cx="30.6993" cy="305.0" r="2" /><circle cx="13.6931" cy="266.8034" r="2" /><circle cx="5.0" cy="225.9057" r="2" /><circle cx="5.0" cy="184.0943" r="2" /><circle cx="13.6931" cy="143.1966" r="2" /><circle cx="30.6993" cy="105.0" r="2" /><circle cx="55.2754" cy="71.1739" r="2" /><circle cx="86.3473" cy="43.1966" r="2" /><circle cx="122.5571" cy="22.2909" r="2" /><circle cx="162.322" cy="9.3705" r="2" /><circle cx="203.9044" cy="5.0" r="2" /><circle cx="245.4867" cy="9.3705" r="2" /><circle cx="285.2517" cy="22.2909" r="2" /><circle cx="321.4614" cy="43.1966" r="2" /><circle cx="315.3761" cy="104.6304" r="2" /><circle cx="333.8082" cy="130.0" r="2" /><circle cx="346.5629" cy="158.6475" r="2" /><circle cx="353.0827" cy="189.3207" r="2" /><circle cx="353.0827" cy="220.6793" r="2" /><circle cx="346.5629" cy="251.3525" r="2" /><circle cx="333.8082" cy="280.0" r="2" /><circle cx="315.3761" cy="305.3696" r="2" /><circle cx="292.0722" cy="326.3525" r="2" /><circle cx="264.9149" cy="342.0318" r="2" /><circle cx="235.0911" cy="351.7221" r="2" /><circle cx="203.9044" cy="355.0" r="2" /><circle cx="172.7176" cy="351.7221" r="2" /><circle cx="142.8939" cy="342.0318" r="2" /><circle cx="115.7366" cy="326.3525" r="2" /><circle cx="92.4327" cy="305.3696" r="2" /><circle cx="74.0006" cy="280.0" r="2" /><circle cx="61.2459" cy="251.3525" r="2" /><circle cx="54.7261" cy="220.6793" r="2" /><circle cx="54.7261" cy="189.3207" r="2" /><circle cx="61.2459" cy="158.6475" r="2" /><circle cx="74.0006" cy="130.0" r="2" /><circle cx="92.4327" cy="104.6304" r="2" /><circle cx="115.7366" cy="83.6475" r="2" /><circle cx="142.8939" cy="67.9682" r="2" /><circle cx="172.7176" cy="58.2779" r="2" /><circle cx="203.9044" cy="55.0" r="2" /><circle cx="235.0911" cy="58.2779" r="2" /><circle cx="264.9149" cy="67.9682" r="2" /><circle cx="292.0722" cy="83.6475" r="2" /></svg>